<svg xmlns="http://www.w3.org/2000/svg" version="1.1" xmlns:xlink="http://www.w3.org/1999/xlink" xmlns:svgjs="http://svgjs.com/svgjs" width="48" height="48"><svg viewBox="0 0 48 48" xmlns="http://www.w3.org/2000/svg"><path d="m19.83 8.77-2.77 2.84H6.29A1.79 1.79 0 0 0 4.5 13.4v23.22a1.8 1.8 0 0 0 1.79 1.8h35.42a1.8 1.8 0 0 0 1.79-1.8V13.4a1.79 1.79 0 0 0-1.79-1.79H30.94l-2.77-2.84Zm18.93 5.74a1.84 1.84 0 1 1 0 3.68 1.84 1.84 0 0 1 0-3.68ZM24 17.71a8.51 8.51 0 1 1-8.51 8.51A8.51 8.51 0 0 1 24 17.71Z" fill="none" stroke="#000"></path></svg><style>@media (prefers-color-scheme: light) { :root { filter: none; } }
@media (prefers-color-scheme: dark) { :root { filter: invert(100%); } }
</style></svg>